<svg xmlns="http://www.w3.org/2000/svg" xmlns:xlink="http://www.w3.org/1999/xlink" width="1000" zoomAndPan="magnify" viewBox="0 0 750 749.999995" height="1000" preserveAspectRatio="xMidYMid meet" version="1.0"><defs><clipPath id="d9a3564d0a"><path d="M 196 192.152344 L 555 192.152344 L 555 558 L 196 558 Z M 196 192.152344 " clip-rule="nonzero"/></clipPath></defs><g clip-path="url(#d9a3564d0a)"><path fill="#ff0000" d="M 515.808594 493.855469 C 518.316406 490.089844 518.945312 485.699219 517.6875 481.9375 L 483.191406 335.164062 C 482.5625 333.285156 481.9375 332.027344 480.683594 331.402344 C 479.429688 330.773438 477.546875 330.148438 475.664062 330.773438 L 253.625 382.835938 L 444.304688 257.390625 C 445.558594 256.761719 446.8125 254.878906 446.8125 253.625 C 447.441406 251.742188 446.8125 250.488281 446.183594 248.609375 L 430.503906 224.773438 C 427.996094 221.011719 424.859375 218.5 420.46875 217.875 C 416.078125 217.246094 411.6875 217.875 408.550781 220.382812 L 204.074219 353.980469 C 196.546875 359 194.667969 369.035156 199.683594 375.933594 L 214.738281 399.144531 L 223.519531 435.523438 L 249.234375 545.285156 C 250.488281 549.675781 253 552.8125 256.136719 555.324219 C 258.644531 557.203125 261.78125 557.832031 264.289062 557.832031 C 265.542969 557.832031 266.796875 557.832031 268.050781 557.203125 L 505.773438 501.378906 C 510.164062 500.125 513.925781 497.617188 515.808594 493.855469 Z M 478.171875 369.035156 L 455.59375 374.054688 L 467.511719 344.574219 L 471.902344 343.320312 Z M 227.910156 401.652344 L 256.761719 394.753906 L 244.84375 424.230469 L 234.183594 426.742188 Z M 271.816406 390.988281 L 296.277344 385.34375 L 284.359375 414.824219 L 259.898438 420.46875 Z M 310.703125 382.207031 L 335.164062 376.5625 L 323.25 406.042969 L 298.785156 411.6875 Z M 350.21875 372.800781 L 374.679688 367.152344 L 362.765625 396.632812 L 338.300781 402.277344 Z M 389.734375 363.390625 L 414.195312 357.746094 L 402.277344 387.226562 L 377.816406 392.871094 Z M 428.621094 353.980469 L 453.085938 348.335938 L 441.167969 377.816406 L 416.707031 383.460938 Z M 251.117188 338.300781 L 280.597656 349.589844 L 259.898438 363.390625 L 230.417969 352.101562 Z M 284.988281 316.347656 L 314.46875 327.636719 L 293.769531 341.4375 L 264.289062 330.148438 Z M 318.230469 293.769531 L 347.710938 305.058594 L 327.011719 318.855469 L 297.53125 307.566406 Z M 352.101562 271.816406 L 381.582031 283.105469 L 360.882812 296.90625 L 331.402344 285.613281 Z M 385.972656 249.863281 L 415.449219 261.152344 L 394.753906 274.953125 L 365.273438 263.660156 Z M 414.824219 230.417969 C 415.449219 229.789062 416.707031 229.789062 417.332031 229.789062 C 417.960938 229.789062 419.214844 230.417969 419.839844 231.046875 L 432.386719 249.863281 L 428.621094 252.371094 L 399.144531 241.082031 Z M 210.972656 364.644531 L 217.246094 360.253906 L 246.726562 371.542969 L 222.265625 387.851562 L 209.71875 369.035156 C 209.09375 367.78125 209.09375 365.898438 210.972656 364.644531 Z M 505.144531 487.582031 C 504.515625 488.210938 503.890625 488.835938 503.261719 488.835938 L 265.542969 544.660156 C 264.917969 544.660156 263.660156 544.660156 263.035156 544.03125 C 262.40625 543.40625 261.78125 542.777344 261.78125 542.152344 L 236.691406 438.65625 L 481.308594 380.953125 L 505.773438 484.445312 C 505.773438 485.699219 505.773438 486.953125 505.144531 487.582031 Z M 545.914062 498.871094 C 547.167969 503.261719 545.914062 507.652344 544.03125 510.789062 C 541.523438 514.550781 538.386719 517.0625 533.996094 517.6875 L 454.964844 536.503906 C 454.339844 536.503906 453.710938 536.503906 453.710938 536.503906 C 450.574219 536.503906 448.066406 534.625 447.441406 531.488281 C 446.8125 528.351562 448.695312 524.589844 451.832031 523.960938 L 530.859375 505.144531 C 531.488281 505.144531 532.742188 504.515625 532.742188 503.890625 C 532.742188 503.261719 533.371094 502.007812 533.371094 501.378906 L 532.742188 498.871094 C 532.117188 495.734375 533.996094 491.972656 537.132812 491.34375 C 540.269531 490.71875 544.03125 492.601562 544.660156 495.734375 Z M 528.980469 482.5625 L 526.46875 470.648438 C 525.84375 467.511719 527.726562 463.746094 530.859375 463.121094 C 533.996094 462.492188 537.761719 464.375 538.386719 467.511719 L 540.898438 479.429688 C 541.523438 482.5625 539.640625 486.328125 536.507812 486.953125 C 535.878906 486.953125 535.25 486.953125 535.25 486.953125 C 532.117188 486.953125 529.605469 485.074219 528.980469 482.5625 Z M 339.554688 514.550781 C 340.183594 517.6875 338.300781 521.453125 335.164062 522.078125 L 279.34375 535.25 C 278.714844 535.25 278.089844 535.25 278.089844 535.25 C 274.953125 535.25 272.441406 533.371094 271.816406 530.234375 C 271.1875 527.097656 273.070312 523.332031 276.207031 522.707031 L 332.03125 509.535156 C 335.792969 508.90625 338.929688 511.417969 339.554688 514.550781 Z M 384.089844 503.890625 C 384.714844 507.027344 382.835938 510.789062 379.699219 511.417969 L 353.355469 517.6875 C 352.726562 517.6875 352.101562 517.6875 352.101562 517.6875 C 348.964844 517.6875 346.457031 515.808594 345.828125 512.671875 C 345.203125 509.535156 347.082031 505.769531 350.21875 505.144531 L 376.5625 498.871094 C 379.699219 498.871094 383.460938 500.753906 384.089844 503.890625 Z M 515.808594 253.625 C 513.925781 250.488281 514.554688 246.726562 517.6875 244.84375 L 533.996094 234.179688 C 537.132812 232.300781 540.898438 232.925781 542.777344 236.0625 C 544.660156 239.199219 544.03125 242.960938 540.898438 244.84375 L 524.589844 255.507812 C 523.335938 256.132812 522.078125 256.132812 521.453125 256.132812 C 518.945312 256.132812 517.0625 255.507812 515.808594 253.625 Z M 554.695312 310.078125 C 555.324219 313.210938 552.8125 316.347656 549.050781 316.976562 L 523.335938 319.484375 C 523.335938 319.484375 522.707031 319.484375 522.707031 319.484375 C 519.570312 319.484375 517.0625 316.976562 516.433594 313.839844 C 515.808594 310.703125 518.316406 307.566406 522.078125 306.941406 L 547.796875 304.429688 C 551.558594 304.429688 554.695312 306.941406 554.695312 310.078125 Z M 461.238281 215.363281 L 473.15625 195.921875 C 475.039062 192.785156 478.800781 192.15625 481.9375 194.039062 C 485.074219 195.921875 485.699219 199.683594 483.820312 202.820312 L 471.902344 222.265625 C 470.648438 223.519531 468.765625 224.773438 466.257812 224.773438 C 465.003906 224.773438 463.746094 224.773438 463.121094 224.144531 C 460.613281 222.265625 459.355469 218.5 461.238281 215.363281 Z M 461.238281 215.363281 " fill-opacity="1" fill-rule="nonzero"/></g></svg>