<svg xmlns="http://www.w3.org/2000/svg" xmlns:xlink="http://www.w3.org/1999/xlink" width="1000" zoomAndPan="magnify" viewBox="0 0 750 749.999995" height="1000" preserveAspectRatio="xMidYMid meet" version="1.0"><defs><g/><clipPath id="c668a8d4d2"><path d="M 38 171 L 346 171 L 346 489 L 38 489 Z M 38 171 " clip-rule="nonzero"/></clipPath><clipPath id="f1b930ec2d"><path d="M 33.835938 175.867188 L 344.246094 170.007812 L 350.167969 483.777344 L 39.761719 489.640625 Z M 33.835938 175.867188 " clip-rule="nonzero"/></clipPath><clipPath id="b6208e7f94"><path d="M 33.835938 175.867188 L 344.246094 170.007812 L 350.167969 483.777344 L 39.761719 489.640625 Z M 33.835938 175.867188 " clip-rule="nonzero"/></clipPath><clipPath id="f466fff752"><path d="M 164.722656 413 L 432 413 L 432 519.121094 L 164.722656 519.121094 Z M 164.722656 413 " clip-rule="nonzero"/></clipPath><clipPath id="2fd7941d1f"><path d="M 645 388 L 716.039062 388 L 716.039062 407 L 645 407 Z M 645 388 " clip-rule="nonzero"/></clipPath></defs><g clip-path="url(#c668a8d4d2)"><g clip-path="url(#f1b930ec2d)"><g clip-path="url(#b6208e7f94)"><path fill="#ffffff" d="M 314.695312 429.917969 C 316.789062 426.644531 317.257812 422.859375 316.117188 419.648438 L 284.09375 294.082031 C 283.523438 292.476562 282.964844 291.410156 281.875 290.890625 C 280.785156 290.371094 279.160156 289.863281 277.550781 290.433594 L 87.59375 338.769531 L 249.414062 227.878906 C 250.480469 227.320312 251.527344 225.683594 251.507812 224.605469 C 252.015625 222.976562 251.457031 221.910156 250.886719 220.304688 L 237.027344 200.074219 C 234.808594 196.882812 232.074219 194.777344 228.289062 194.308594 C 224.507812 193.84375 220.746094 194.453125 218.089844 196.660156 L 44.546875 314.78125 C 38.160156 319.214844 36.707031 327.871094 41.128906 333.71875 L 54.441406 353.414062 L 62.578125 384.535156 L 86.457031 478.441406 C 87.605469 482.191406 89.8125 484.847656 92.550781 486.953125 C 94.734375 488.527344 97.441406 489.015625 99.597656 488.976562 C 100.675781 488.957031 101.753906 488.933594 102.820312 488.375 L 306.191406 436.550781 C 309.945312 435.398438 313.136719 433.183594 314.695312 429.917969 Z M 280.328125 323.269531 L 261.007812 327.949219 L 270.769531 302.421875 L 274.523438 301.273438 Z M 65.800781 355.359375 L 90.484375 348.960938 L 80.722656 374.488281 L 71.597656 376.816406 Z M 103.359375 345.484375 L 124.285156 340.234375 L 114.523438 365.761719 L 93.59375 371.007812 Z M 136.632812 337.304688 L 157.5625 332.058594 L 147.800781 357.585938 L 126.871094 362.832031 Z M 170.4375 328.582031 L 191.367188 323.332031 L 181.601562 348.859375 L 160.675781 354.105469 Z M 204.242188 319.855469 L 225.167969 314.605469 L 215.40625 340.132812 L 194.476562 345.378906 Z M 237.503906 311.136719 L 258.433594 305.890625 L 248.671875 331.417969 L 227.742188 336.664062 Z M 84.714844 300.542969 L 110.230469 309.765625 L 92.667969 321.960938 L 67.152344 312.738281 Z M 113.464844 281.128906 L 138.980469 290.351562 L 121.417969 302.546875 L 95.902344 293.324219 Z M 141.664062 261.1875 L 167.183594 270.410156 L 149.617188 282.605469 L 124.101562 273.378906 Z M 170.414062 241.773438 L 195.929688 250.996094 L 178.367188 263.191406 L 152.851562 253.964844 Z M 199.164062 222.359375 L 224.679688 231.582031 L 207.117188 243.773438 L 181.601562 234.550781 Z M 223.644531 205.179688 C 224.171875 204.632812 225.25 204.613281 225.789062 204.601562 C 226.328125 204.589844 227.414062 205.109375 227.964844 205.640625 L 239.050781 221.605469 L 235.855469 223.820312 L 210.339844 214.597656 Z M 50.648438 323.832031 L 55.96875 319.957031 L 81.484375 329.179688 L 60.726562 343.59375 L 49.640625 327.625 C 49.082031 326.558594 49.050781 324.941406 50.648438 323.832031 Z M 305.429688 424.703125 C 304.898438 425.25 304.371094 425.800781 303.832031 425.808594 L 100.460938 477.636719 C 99.921875 477.648438 98.84375 477.667969 98.296875 477.140625 C 97.746094 476.609375 97.195312 476.082031 97.1875 475.542969 L 73.949219 387.015625 L 283.21875 333.460938 L 305.917969 421.996094 C 305.9375 423.074219 305.957031 424.152344 305.429688 424.703125 Z M 340.648438 433.742188 C 341.796875 437.496094 340.789062 441.289062 339.222656 444.011719 C 337.128906 447.289062 334.472656 449.496094 330.710938 450.105469 L 263.105469 467.558594 C 262.566406 467.566406 262.027344 467.578125 262.027344 467.578125 C 259.332031 467.628906 257.144531 466.050781 256.554688 463.367188 C 255.964844 460.683594 257.519531 457.417969 260.207031 456.828125 L 327.8125 439.375 C 328.351562 439.367188 329.417969 438.808594 329.410156 438.269531 C 329.398438 437.730469 329.917969 436.640625 329.90625 436.101562 L 329.328125 433.957031 C 328.738281 431.269531 330.292969 428.007812 332.980469 427.417969 C 335.664062 426.828125 338.929688 428.382812 339.519531 431.066406 Z M 325.828125 420.003906 L 323.480469 409.804688 C 322.890625 407.117188 324.445312 403.855469 327.132812 403.265625 C 329.816406 402.675781 333.082031 404.230469 333.671875 406.914062 L 336.019531 417.113281 C 336.609375 419.800781 335.054688 423.0625 332.367188 423.652344 C 331.828125 423.664062 331.289062 423.675781 331.289062 423.675781 C 328.59375 423.726562 326.410156 422.148438 325.828125 420.003906 Z M 163.574219 450.566406 C 164.164062 453.25 162.609375 456.515625 159.921875 457.105469 L 112.167969 469.328125 C 111.628906 469.339844 111.089844 469.347656 111.089844 469.347656 C 108.394531 469.398438 106.207031 467.824219 105.617188 465.136719 C 105.027344 462.453125 106.582031 459.1875 109.269531 458.597656 L 157.023438 446.375 C 160.246094 445.773438 162.984375 447.878906 163.574219 450.566406 Z M 201.667969 440.679688 C 202.257812 443.363281 200.703125 446.628906 198.019531 447.21875 L 175.480469 453.035156 C 174.941406 453.046875 174.402344 453.054688 174.402344 453.054688 C 171.710938 453.105469 169.523438 451.53125 168.933594 448.847656 C 168.34375 446.160156 169.898438 442.898438 172.582031 442.308594 L 195.121094 436.488281 C 197.816406 436.4375 201.078125 437.996094 201.667969 440.679688 Z M 310.796875 223.484375 C 309.128906 220.820312 309.605469 217.578125 312.269531 215.910156 L 326.113281 206.480469 C 328.777344 204.8125 332.019531 205.292969 333.6875 207.957031 C 335.355469 210.621094 334.878906 213.863281 332.214844 215.53125 L 318.371094 224.960938 C 317.304688 225.519531 316.226562 225.539062 315.6875 225.550781 C 313.53125 225.589844 311.90625 225.082031 310.796875 223.484375 Z M 345.128906 271.363281 C 345.71875 274.046875 343.613281 276.785156 340.390625 277.382812 L 318.332031 279.957031 C 318.332031 279.957031 317.792969 279.96875 317.792969 279.96875 C 315.097656 280.019531 312.902344 277.902344 312.3125 275.21875 C 311.722656 272.535156 313.828125 269.796875 317.050781 269.199219 L 339.109375 266.625 C 342.34375 266.5625 345.078125 268.667969 345.128906 271.363281 Z M 263.285156 191.492188 L 273.207031 174.589844 C 274.773438 171.863281 278 171.265625 280.722656 172.832031 C 283.449219 174.398438 284.050781 177.621094 282.484375 180.347656 L 272.558594 197.25 C 271.5 198.347656 269.902344 199.457031 267.75 199.496094 C 266.671875 199.515625 265.59375 199.535156 265.042969 199.007812 C 262.855469 197.433594 261.71875 194.21875 263.285156 191.492188 Z M 263.285156 191.492188 " fill-opacity="1" fill-rule="nonzero"/></g></g></g><path fill="#ff0000" d="M 210.769531 501.839844 L 170 372.941406 C 229.953125 374.140625 336.667969 375.339844 396.621094 375.9375 C 426.59375 376.539062 438.585938 376.539062 463.164062 354.957031 C 490.742188 329.777344 527.308594 341.167969 556.09375 357.355469 C 516.527344 353.15625 510.535156 378.9375 570.480469 377.738281 C 605.851562 376.539062 617.851562 373.539062 644.824219 389.726562 C 578.867188 389.726562 572.28125 423.300781 630.433594 419.703125 C 666.40625 417.304688 663.410156 411.910156 698.183594 425.101562 C 648.421875 420.90625 647.222656 447.28125 616.648438 453.886719 C 607.652344 455.683594 593.863281 453.886719 572.28125 448.492188 C 546.503906 442.496094 542.308594 473.070312 566.886719 481.464844 C 579.476562 482.664062 586.671875 480.863281 599.261719 478.464844 C 560.292969 512.636719 530.914062 512.636719 490.75 506.042969 C 470.964844 502.449219 469.167969 501.847656 452.378906 501.847656 Z M 210.769531 501.839844 " fill-opacity="1" fill-rule="evenodd"/><path fill="#ff0000" d="M 602.253906 486.847656 C 610.046875 477.257812 623.238281 472.460938 635.828125 474.859375 C 643.621094 476.660156 651.414062 480.855469 665.203125 480.855469 C 659.207031 487.449219 654.414062 488.046875 650.816406 489.242188 C 642.429688 492.238281 637.625 486.839844 622.636719 485.042969 C 618.441406 484.441406 610.046875 483.84375 602.253906 486.839844 Z M 602.253906 486.847656 " fill-opacity="1" fill-rule="evenodd"/><g clip-path="url(#f466fff752)"><path fill="#ff0000" d="M 164.605469 413.710938 L 198.777344 519.226562 L 431.390625 519.226562 L 427.792969 508.433594 L 206.574219 508.433594 L 175.996094 413.710938 Z M 164.605469 413.710938 " fill-opacity="1" fill-rule="nonzero"/></g><g clip-path="url(#2fd7941d1f)"><path fill="#ff0000" d="M 645.417969 404.117188 C 659.207031 395.730469 667 390.925781 674.203125 389.128906 C 679 388.53125 683.796875 389.128906 690.390625 390.925781 C 701.785156 394.523438 702.980469 396.921875 716.171875 396.921875 C 704.78125 405.917969 701.183594 407.714844 685.597656 404.71875 C 674.203125 402.917969 664.613281 398.722656 645.429688 404.117188 Z M 645.417969 404.117188 " fill-opacity="1" fill-rule="evenodd"/></g><g fill="#000000" fill-opacity="1"><g transform="translate(237.466177, 459.477405)"><g><path d="M 46.46875 -47.921875 L 46.46875 0 L 40.6875 0 C 39.832031 0 39.113281 -0.132812 38.53125 -0.40625 C 37.945312 -0.6875 37.367188 -1.164062 36.796875 -1.84375 L 14.203125 -30.421875 C 14.296875 -29.566406 14.359375 -28.738281 14.390625 -27.9375 C 14.421875 -27.132812 14.4375 -26.382812 14.4375 -25.6875 L 14.4375 0 L 4.640625 0 L 4.640625 -47.921875 L 10.484375 -47.921875 C 10.972656 -47.921875 11.378906 -47.898438 11.703125 -47.859375 C 12.035156 -47.816406 12.332031 -47.734375 12.59375 -47.609375 C 12.851562 -47.484375 13.101562 -47.3125 13.34375 -47.09375 C 13.59375 -46.875 13.867188 -46.582031 14.171875 -46.21875 L 36.96875 -17.4375 C 36.851562 -18.351562 36.773438 -19.242188 36.734375 -20.109375 C 36.691406 -20.972656 36.671875 -21.789062 36.671875 -22.5625 L 36.671875 -47.921875 Z M 46.46875 -47.921875 "/></g></g></g><g fill="#000000" fill-opacity="1"><g transform="translate(288.58397, 459.477405)"><g><path d="M 19.171875 -34.640625 C 21.765625 -34.640625 24.125 -34.234375 26.25 -33.421875 C 28.375 -32.609375 30.195312 -31.441406 31.71875 -29.921875 C 33.25 -28.410156 34.4375 -26.578125 35.28125 -24.421875 C 36.125 -22.265625 36.546875 -19.835938 36.546875 -17.140625 C 36.546875 -14.421875 36.125 -11.96875 35.28125 -9.78125 C 34.4375 -7.601562 33.25 -5.75 31.71875 -4.21875 C 30.195312 -2.695312 28.375 -1.523438 26.25 -0.703125 C 24.125 0.117188 21.765625 0.53125 19.171875 0.53125 C 16.566406 0.53125 14.191406 0.117188 12.046875 -0.703125 C 9.910156 -1.523438 8.066406 -2.695312 6.515625 -4.21875 C 4.972656 -5.75 3.78125 -7.601562 2.9375 -9.78125 C 2.09375 -11.96875 1.671875 -14.421875 1.671875 -17.140625 C 1.671875 -19.835938 2.09375 -22.265625 2.9375 -24.421875 C 3.78125 -26.578125 4.972656 -28.410156 6.515625 -29.921875 C 8.066406 -31.441406 9.910156 -32.609375 12.046875 -33.421875 C 14.191406 -34.234375 16.566406 -34.640625 19.171875 -34.640625 Z M 19.171875 -7.03125 C 21.515625 -7.03125 23.238281 -7.859375 24.34375 -9.515625 C 25.457031 -11.171875 26.015625 -13.6875 26.015625 -17.0625 C 26.015625 -20.445312 25.457031 -22.957031 24.34375 -24.59375 C 23.238281 -26.238281 21.515625 -27.0625 19.171875 -27.0625 C 16.765625 -27.0625 15 -26.238281 13.875 -24.59375 C 12.757812 -22.957031 12.203125 -20.445312 12.203125 -17.0625 C 12.203125 -13.6875 12.757812 -11.171875 13.875 -9.515625 C 15 -7.859375 16.765625 -7.03125 19.171875 -7.03125 Z M 19.171875 -7.03125 "/></g></g></g><g fill="#000000" fill-opacity="1"><g transform="translate(326.807183, 459.477405)"><g><path d="M 53.640625 -34.109375 L 43.046875 0 L 34.765625 0 C 34.328125 0 33.953125 -0.128906 33.640625 -0.390625 C 33.335938 -0.660156 33.097656 -1.097656 32.921875 -1.703125 L 28.0625 -18.71875 C 27.8125 -19.476562 27.59375 -20.234375 27.40625 -20.984375 C 27.226562 -21.734375 27.0625 -22.488281 26.90625 -23.25 C 26.75 -22.488281 26.578125 -21.722656 26.390625 -20.953125 C 26.203125 -20.179688 25.988281 -19.414062 25.75 -18.65625 L 20.8125 -1.703125 C 20.488281 -0.566406 19.769531 0 18.65625 0 L 10.75 0 L 0.171875 -34.109375 L 8.328125 -34.109375 C 9.046875 -34.109375 9.648438 -33.9375 10.140625 -33.59375 C 10.640625 -33.257812 10.976562 -32.835938 11.15625 -32.328125 L 14.578125 -17.03125 C 14.859375 -15.875 15.109375 -14.75 15.328125 -13.65625 C 15.546875 -12.570312 15.742188 -11.484375 15.921875 -10.390625 C 16.203125 -11.484375 16.5 -12.570312 16.8125 -13.65625 C 17.132812 -14.75 17.484375 -15.875 17.859375 -17.03125 L 22.140625 -32.359375 C 22.316406 -32.867188 22.644531 -33.289062 23.125 -33.625 C 23.601562 -33.96875 24.171875 -34.140625 24.828125 -34.140625 L 29.375 -34.140625 C 30.09375 -34.140625 30.695312 -33.96875 31.1875 -33.625 C 31.6875 -33.289062 32.023438 -32.867188 32.203125 -32.359375 L 36.28125 -17.03125 C 36.601562 -15.875 36.921875 -14.742188 37.234375 -13.640625 C 37.554688 -12.546875 37.851562 -11.441406 38.125 -10.328125 C 38.300781 -11.421875 38.507812 -12.515625 38.75 -13.609375 C 38.988281 -14.710938 39.257812 -15.851562 39.5625 -17.03125 L 43.1875 -32.328125 C 43.363281 -32.835938 43.691406 -33.257812 44.171875 -33.59375 C 44.648438 -33.9375 45.21875 -34.109375 45.875 -34.109375 Z M 53.640625 -34.109375 "/></g></g></g><g fill="#000000" fill-opacity="1"><g transform="translate(380.622308, 459.477405)"><g><path d="M 15.828125 -39.375 L 15.828125 -27.234375 L 32.203125 -27.234375 L 32.203125 -18.65625 L 15.828125 -18.65625 L 15.828125 0 L 4.640625 0 L 4.640625 -47.921875 L 35.484375 -47.921875 L 35.484375 -39.375 Z M 15.828125 -39.375 "/></g></g></g><g fill="#000000" fill-opacity="1"><g transform="translate(417.891588, 459.477405)"><g><path d="M 13.875 -34.109375 L 13.875 0 L 3.6875 0 L 3.6875 -34.109375 Z M 14.9375 -43.453125 C 14.9375 -42.640625 14.769531 -41.875 14.4375 -41.15625 C 14.113281 -40.445312 13.664062 -39.820312 13.09375 -39.28125 C 12.519531 -38.75 11.851562 -38.320312 11.09375 -38 C 10.34375 -37.6875 9.539062 -37.53125 8.6875 -37.53125 C 7.851562 -37.53125 7.070312 -37.6875 6.34375 -38 C 5.625 -38.320312 4.984375 -38.75 4.421875 -39.28125 C 3.859375 -39.820312 3.414062 -40.445312 3.09375 -41.15625 C 2.78125 -41.875 2.625 -42.640625 2.625 -43.453125 C 2.625 -44.285156 2.78125 -45.0625 3.09375 -45.78125 C 3.414062 -46.507812 3.859375 -47.144531 4.421875 -47.6875 C 4.984375 -48.238281 5.625 -48.664062 6.34375 -48.96875 C 7.070312 -49.28125 7.851562 -49.4375 8.6875 -49.4375 C 9.539062 -49.4375 10.34375 -49.28125 11.09375 -48.96875 C 11.851562 -48.664062 12.519531 -48.238281 13.09375 -47.6875 C 13.664062 -47.144531 14.113281 -46.507812 14.4375 -45.78125 C 14.769531 -45.0625 14.9375 -44.285156 14.9375 -43.453125 Z M 14.9375 -43.453125 "/></g></g></g><g fill="#000000" fill-opacity="1"><g transform="translate(435.457161, 459.477405)"><g><path d="M 13.65625 -49.234375 L 13.65625 0 L 3.453125 0 L 3.453125 -49.234375 Z M 13.65625 -49.234375 "/></g></g></g><g fill="#000000" fill-opacity="1"><g transform="translate(452.562216, 459.477405)"><g><path d="M 3.453125 0 L 3.453125 -34.109375 L 9.765625 -34.109375 C 11.035156 -34.109375 11.867188 -33.535156 12.265625 -32.390625 L 12.828125 -30.5625 C 13.398438 -31.144531 13.992188 -31.679688 14.609375 -32.171875 C 15.222656 -32.671875 15.882812 -33.101562 16.59375 -33.46875 C 17.300781 -33.832031 18.066406 -34.117188 18.890625 -34.328125 C 19.710938 -34.535156 20.617188 -34.640625 21.609375 -34.640625 C 23.671875 -34.640625 25.375 -34.101562 26.71875 -33.03125 C 28.070312 -31.96875 29.097656 -30.550781 29.796875 -28.78125 C 30.367188 -29.832031 31.066406 -30.726562 31.890625 -31.46875 C 32.710938 -32.21875 33.597656 -32.820312 34.546875 -33.28125 C 35.503906 -33.738281 36.515625 -34.078125 37.578125 -34.296875 C 38.640625 -34.523438 39.695312 -34.640625 40.75 -34.640625 C 42.695312 -34.640625 44.425781 -34.347656 45.9375 -33.765625 C 47.457031 -33.179688 48.726562 -32.332031 49.75 -31.21875 C 50.769531 -30.113281 51.539062 -28.753906 52.0625 -27.140625 C 52.59375 -25.535156 52.859375 -23.710938 52.859375 -21.671875 L 52.859375 0 L 42.65625 0 L 42.65625 -21.671875 C 42.65625 -25.203125 41.144531 -26.96875 38.125 -26.96875 C 36.738281 -26.96875 35.585938 -26.507812 34.671875 -25.59375 C 33.765625 -24.6875 33.3125 -23.378906 33.3125 -21.671875 L 33.3125 0 L 23.125 0 L 23.125 -21.671875 C 23.125 -23.628906 22.738281 -25 21.96875 -25.78125 C 21.195312 -26.570312 20.066406 -26.96875 18.578125 -26.96875 C 17.660156 -26.96875 16.789062 -26.757812 15.96875 -26.34375 C 15.144531 -25.925781 14.375 -25.367188 13.65625 -24.671875 L 13.65625 0 Z M 3.453125 0 "/></g></g></g><g fill="#000000" fill-opacity="1"><g transform="translate(508.548373, 459.477405)"><g><path d="M 25.125 -26.640625 C 24.863281 -26.222656 24.582031 -25.925781 24.28125 -25.75 C 23.988281 -25.570312 23.613281 -25.484375 23.15625 -25.484375 C 22.675781 -25.484375 22.191406 -25.585938 21.703125 -25.796875 C 21.222656 -26.003906 20.703125 -26.226562 20.140625 -26.46875 C 19.585938 -26.71875 18.957031 -26.945312 18.25 -27.15625 C 17.550781 -27.363281 16.753906 -27.46875 15.859375 -27.46875 C 14.554688 -27.46875 13.5625 -27.21875 12.875 -26.71875 C 12.1875 -26.226562 11.84375 -25.546875 11.84375 -24.671875 C 11.84375 -24.035156 12.066406 -23.507812 12.515625 -23.09375 C 12.960938 -22.675781 13.554688 -22.304688 14.296875 -21.984375 C 15.046875 -21.671875 15.890625 -21.367188 16.828125 -21.078125 C 17.773438 -20.796875 18.742188 -20.476562 19.734375 -20.125 C 20.722656 -19.78125 21.6875 -19.367188 22.625 -18.890625 C 23.570312 -18.421875 24.414062 -17.835938 25.15625 -17.140625 C 25.90625 -16.453125 26.503906 -15.613281 26.953125 -14.625 C 27.398438 -13.644531 27.625 -12.460938 27.625 -11.078125 C 27.625 -9.390625 27.316406 -7.832031 26.703125 -6.40625 C 26.085938 -4.988281 25.171875 -3.765625 23.953125 -2.734375 C 22.742188 -1.703125 21.242188 -0.898438 19.453125 -0.328125 C 17.671875 0.242188 15.613281 0.53125 13.28125 0.53125 C 12.125 0.53125 10.960938 0.421875 9.796875 0.203125 C 8.640625 -0.015625 7.515625 -0.3125 6.421875 -0.6875 C 5.335938 -1.0625 4.335938 -1.503906 3.421875 -2.015625 C 2.503906 -2.535156 1.710938 -3.09375 1.046875 -3.6875 L 3.421875 -7.4375 C 3.679688 -7.875 4.015625 -8.21875 4.421875 -8.46875 C 4.828125 -8.71875 5.347656 -8.84375 5.984375 -8.84375 C 6.578125 -8.84375 7.109375 -8.710938 7.578125 -8.453125 C 8.046875 -8.191406 8.554688 -7.90625 9.109375 -7.59375 C 9.660156 -7.289062 10.300781 -7.003906 11.03125 -6.734375 C 11.769531 -6.472656 12.695312 -6.34375 13.8125 -6.34375 C 14.601562 -6.34375 15.269531 -6.425781 15.8125 -6.59375 C 16.363281 -6.757812 16.800781 -6.984375 17.125 -7.265625 C 17.457031 -7.554688 17.703125 -7.875 17.859375 -8.21875 C 18.015625 -8.570312 18.09375 -8.9375 18.09375 -9.3125 C 18.09375 -9.988281 17.859375 -10.546875 17.390625 -10.984375 C 16.929688 -11.421875 16.328125 -11.796875 15.578125 -12.109375 C 14.835938 -12.429688 13.988281 -12.726562 13.03125 -13 C 12.082031 -13.28125 11.113281 -13.59375 10.125 -13.9375 C 9.144531 -14.289062 8.175781 -14.710938 7.21875 -15.203125 C 6.257812 -15.703125 5.40625 -16.328125 4.65625 -17.078125 C 3.914062 -17.835938 3.316406 -18.765625 2.859375 -19.859375 C 2.398438 -20.960938 2.171875 -22.289062 2.171875 -23.84375 C 2.171875 -25.289062 2.445312 -26.664062 3 -27.96875 C 3.5625 -29.28125 4.398438 -30.425781 5.515625 -31.40625 C 6.640625 -32.394531 8.046875 -33.179688 9.734375 -33.765625 C 11.421875 -34.347656 13.394531 -34.640625 15.65625 -34.640625 C 16.882812 -34.640625 18.070312 -34.523438 19.21875 -34.296875 C 20.375 -34.078125 21.457031 -33.769531 22.46875 -33.375 C 23.476562 -32.988281 24.398438 -32.523438 25.234375 -31.984375 C 26.066406 -31.453125 26.800781 -30.863281 27.4375 -30.21875 Z M 25.125 -26.640625 "/></g></g></g></svg>